<svg width="174" height="63" viewBox="0 0 174 63" fill="none" xmlns="http://www.w3.org/2000/svg">
  <path d="M23.1905 31.3261C17.3727 35.4784 12.0364 40.2457 8.23893 45.1575C7.63803 45.9347 2.57716 52.8134 7.5515 52.3621C9.81163 52.157 11.9089 51.2884 13.6811 50.51C19.617 47.9028 24.8025 44.648 29.7211 41.4023C42.9199 32.6926 55.1188 23.4434 67.587 14.3681C70.6076 12.1696 73.7504 10.0122 76.4663 7.67332C77.4538 6.82292 79.923 4.09591 79.216 5.03957C76.0994 9.1996 72.6611 13.3999 69.191 17.4607C60.5553 27.5663 50.0127 36.9699 39.6602 46.4659C39.1354 46.9472 28.6904 56.0846 32.0698 56.6441C36.3688 57.3558 43.648 51.0835 45.6466 49.7793C56.1348 42.9352 67.7927 36.4659 76.9246 28.9472C77.9867 28.0728 81.4327 25.674 79.8748 26.2285C77.9364 26.9185 76.4229 29.8923 75.6357 30.9353C71.3095 36.667 65.9084 42.4025 62.9469 48.4539C62.0917 50.2013 63.5467 50.7355 65.8684 49.7114C70.5377 47.6516 73.2323 44.1681 77.0965 41.6232C78.1238 40.9466 79.1702 40.2817 80.1899 39.6012C81.2936 38.8645 78.8616 41.4094 78.2995 42.3369C77.8525 43.0743 73.5739 51.7164 73.6307 51.7164C76.5686 51.7164 79.7147 47.9313 81.0492 46.7887C82.6426 45.4244 87.7519 42.431 87.0355 40.5187C86.866 40.0662 86.2428 41.3235 85.9758 41.7591C84.4849 44.1913 83.5819 46.7544 82.5959 49.2696C82.4203 49.7176 79.8282 56.5436 81.0778 56.3212C86.293 55.3931 89.5497 49.2298 91.4752 46.8227C99.8405 36.3649 106.956 25.6608 116.796 15.6255C121.697 10.627 126.719 5.62864 133.58 1.48826C136.327 -0.16904 134.277 2.86164 133.867 3.62924C129.374 12.0415 125.077 20.5334 118.228 28.4035C115.443 31.6026 112.332 34.7178 108.718 37.6131C106.732 39.2043 104.264 41.3352 101.242 42.3369C98.5357 43.2342 101.48 37.0018 101.787 36.5256C105.393 30.9174 114.255 28.3287 123.784 27.333C132.519 26.4203 145.465 25.9227 153.344 28.9472C159.414 31.2774 155.617 36.0837 151.167 38.1398C141.186 42.7512 126.041 43.4757 113.989 44.2739C108.294 44.651 102.568 44.9589 96.8601 45.2595C94.9099 45.3621 94.7089 45.4837 93.8239 44.7837" stroke="#FFC700" stroke-width="1.56771" stroke-linecap="round"/>
  <path d="M1 61.3415C4.40325 61.3415 7.7096 61.1976 11.0975 60.8981C30.0002 59.2273 48.8489 57.4654 67.8033 56.0212C93.3537 54.0745 118.952 52.2448 144.59 50.8487C154.147 50.3283 163.678 50.1547 173 48.7058" stroke="#FFC700" stroke-width="1.56771" stroke-linecap="round"/>
  <path d="M39.503 27.6698C39.492 28.4729 39.3655 29.1716 39.1234 29.7657C38.8814 30.3489 38.5348 30.833 38.0837 31.2181C37.6326 31.6031 37.088 31.8892 36.4498 32.0763C35.8227 32.2633 35.113 32.3568 34.3208 32.3568C33.4627 32.3678 32.687 32.2358 31.9938 31.9607C31.3007 31.6967 30.7175 31.3171 30.2444 30.822L30.3434 31.9442H28.8086V20.3916H30.3434V24.0884C31.2346 23.2633 32.5054 22.8507 34.1558 22.8507C34.992 22.8507 35.7402 22.9497 36.4003 23.1477C37.0605 23.3348 37.6216 23.6263 38.0837 24.0224C38.5458 24.4185 38.8979 24.9191 39.1399 25.5243C39.382 26.1294 39.503 26.8446 39.503 27.6698ZM30.3599 27.6202C30.382 28.8085 30.734 29.6557 31.4162 30.1618C32.0983 30.6679 33.0391 30.921 34.2383 30.921C35.4266 30.921 36.3343 30.6734 36.9614 30.1783C37.5886 29.6722 37.9132 28.8195 37.9352 27.6202C37.9132 26.41 37.6051 25.5408 37.011 25.0127C36.4168 24.4845 35.4816 24.2205 34.2053 24.2205C32.929 24.2205 31.9718 24.4845 31.3337 25.0127C30.7065 25.5408 30.382 26.41 30.3599 27.6202Z" fill="#141414"/>
  <path d="M47.3926 31.2181C46.9525 32.0763 46.5509 32.7254 46.1878 33.1655C45.8247 33.6056 45.4727 33.9137 45.1316 34.0897C44.7905 34.2768 44.4384 34.3703 44.0753 34.3703C43.7123 34.3813 43.2997 34.3868 42.8376 34.3868H42.689V32.984C43.0961 32.984 43.4372 32.973 43.7123 32.951C43.9873 32.9289 44.2294 32.8574 44.4384 32.7364C44.6585 32.6154 44.873 32.4228 45.0821 32.1588C45.2911 31.8947 45.5332 31.5206 45.8082 31.0365L45.8907 30.8715H44.8345L40.494 23.2137H42.2269C42.9091 24.424 43.5307 25.5243 44.0918 26.5145C44.3339 26.9326 44.5704 27.3507 44.8015 27.7688C45.0326 28.1759 45.2471 28.5555 45.4451 28.9075C45.6432 29.2486 45.8082 29.5402 45.9403 29.7822C46.0723 30.0133 46.1603 30.1673 46.2043 30.2443L49.7196 23.2137H51.4195L47.3926 31.2181Z" fill="#141414"/>
  <path d="M40.3447 39.4968C40.8508 39.4968 41.3239 39.5628 41.764 39.6948C42.2151 39.8268 42.6057 40.0249 42.9358 40.2889C43.2659 40.542 43.5244 40.8666 43.7115 41.2627C43.8985 41.6587 43.992 42.1208 43.992 42.649V48.7058L42.4572 48.6893V43.2926C42.4572 42.5224 42.2867 41.9283 41.9456 41.5102C41.6045 41.0811 40.9994 40.8666 40.1302 40.8666C39.283 40.8666 38.6063 41.1251 38.1002 41.6422C37.6051 42.1594 37.3245 42.8635 37.2585 43.7547L37.242 48.7058L35.7072 48.6893V43.3091C35.7072 42.924 35.6687 42.583 35.5916 42.2859C35.5146 41.9888 35.3826 41.7358 35.1955 41.5267C35.0195 41.3067 34.783 41.1416 34.4859 41.0316C34.1888 40.9216 33.8202 40.8666 33.3801 40.8666C32.4889 40.8666 31.7903 41.1581 31.2842 41.7413C30.789 42.3134 30.5305 43.0836 30.5085 44.0518V48.7058L28.9736 48.6893V39.9589H30.5085L30.3434 41.0316C30.7065 40.5585 31.1686 40.1844 31.7298 39.9093C32.2909 39.6343 32.918 39.4968 33.6112 39.4968C34.3704 39.5078 35.047 39.6563 35.6411 39.9424C36.2353 40.2174 36.6754 40.6465 36.9614 41.2296C37.3135 40.7015 37.7811 40.2834 38.3643 39.9754C38.9474 39.6563 39.6075 39.4968 40.3447 39.4968Z" fill="#141414"/>
  <path d="M53.462 46.2633C53.451 47.1985 53.1594 47.9082 52.5873 48.3923C52.0261 48.8764 51.2065 49.1184 50.1282 49.1184H49.5671C48.4888 49.1184 47.6527 48.8764 47.0585 48.3923C46.4644 47.8972 46.1563 47.149 46.1343 46.1478C46.1343 45.1685 46.4369 44.4479 47.042 43.9858C47.6471 43.5127 48.4888 43.2761 49.5671 43.2761H54.6337C54.5787 42.792 54.4412 42.3959 54.2211 42.0878C54.0011 41.7688 53.7425 41.5212 53.4455 41.3452C53.1484 41.1581 52.8238 41.0316 52.4717 40.9656C52.1307 40.8886 51.8116 40.8501 51.5145 40.8501H51.3495C51.0524 40.8501 50.7444 40.8721 50.4253 40.9161C50.1062 40.9601 49.7981 41.0426 49.5011 41.1636C49.204 41.2737 48.9344 41.4277 48.6924 41.6257C48.4503 41.8238 48.2688 42.0823 48.1478 42.4014H46.5304C46.5854 41.9723 46.7394 41.5817 46.9925 41.2296C47.2566 40.8776 47.5976 40.575 48.0157 40.3219C48.4448 40.0579 48.9344 39.8543 49.4846 39.7113C50.0457 39.5683 50.6398 39.4968 51.267 39.4968H51.399C52.2572 39.4968 52.9889 39.5958 53.594 39.7938C54.1991 39.9919 54.6943 40.2944 55.0793 40.7015C55.4644 41.1086 55.745 41.6257 55.921 42.2529C56.0971 42.88 56.1906 43.6227 56.2016 44.4809V48.7058H54.6667V44.5964L52.9669 44.5799C53.2969 45.031 53.462 45.5921 53.462 46.2633ZM47.6692 46.1478C47.6802 46.6759 47.8342 47.0775 48.1313 47.3525C48.4283 47.6166 48.9069 47.7486 49.5671 47.7486H50.1282C50.7664 47.7486 51.234 47.6166 51.531 47.3525C51.8281 47.0885 51.9876 46.6869 52.0096 46.1478C51.9876 45.6086 51.8336 45.2126 51.5475 44.9595C51.2615 44.7064 50.7884 44.5799 50.1282 44.5799H49.5671C48.9069 44.5799 48.4283 44.7064 48.1313 44.9595C47.8342 45.2126 47.6802 45.6086 47.6692 46.1478Z" fill="#141414"/>
  <path d="M62.539 44.9265L59.6344 48.7058H57.6869L61.3508 44.1343L58.05 39.9589H59.9975L62.8361 43.5732H64.4205L67.2096 39.9589H69.124L65.8563 44.1178L69.5201 48.7058H67.5727L64.5525 44.9265H62.539Z" fill="#141414"/>
  <path d="M73.7171 46.3128V49.0029H71.0105V46.3128H73.7171Z" fill="#141414"/>
  <path d="M87.5674 39.4968C88.0735 39.4968 88.5466 39.5628 88.9867 39.6948C89.4378 39.8268 89.8284 40.0249 90.1584 40.2889C90.4885 40.542 90.7471 40.8666 90.9341 41.2627C91.1212 41.6587 91.2147 42.1208 91.2147 42.649V48.7058L89.6798 48.6893V43.2926C89.6798 42.5224 89.5093 41.9283 89.1682 41.5102C88.8271 41.0811 88.222 40.8666 87.3528 40.8666C86.5056 40.8666 85.829 41.1251 85.3228 41.6422C84.8277 42.1594 84.5472 42.8635 84.4812 43.7547L84.4646 48.7058L82.9298 48.6893V43.3091C82.9298 42.924 82.8913 42.583 82.8143 42.2859C82.7373 41.9888 82.6052 41.7358 82.4182 41.5267C82.2421 41.3067 82.0056 41.1416 81.7085 41.0316C81.4115 40.9216 81.0429 40.8666 80.6028 40.8666C79.7116 40.8666 79.0129 41.1581 78.5068 41.7413C78.0117 42.3134 77.7531 43.0836 77.7311 44.0518V48.7058L76.1963 48.6893V39.9589H77.7311L77.5661 41.0316C77.9292 40.5585 78.3913 40.1844 78.9524 39.9093C79.5135 39.6343 80.1407 39.4968 80.8338 39.4968C81.593 39.5078 82.2696 39.6563 82.8638 39.9424C83.4579 40.2174 83.898 40.6465 84.1841 41.2296C84.5362 40.7015 85.0038 40.2834 85.5869 39.9754C86.17 39.6563 86.8302 39.4968 87.5674 39.4968Z" fill="#141414"/>
  <path d="M100.685 46.2633C100.674 47.1985 100.382 47.9082 99.8099 48.3923C99.2488 48.8764 98.4291 49.1184 97.3509 49.1184H96.7897C95.7115 49.1184 94.8753 48.8764 94.2812 48.3923C93.687 47.8972 93.379 47.149 93.3569 46.1478C93.3569 45.1685 93.6595 44.4479 94.2646 43.9858C94.8698 43.5127 95.7115 43.2761 96.7897 43.2761H101.856C101.801 42.792 101.664 42.3959 101.444 42.0878C101.224 41.7688 100.965 41.5212 100.668 41.3452C100.371 41.1581 100.046 41.0316 99.6944 40.9656C99.3533 40.8886 99.0342 40.8501 98.7372 40.8501H98.5721C98.2751 40.8501 97.967 40.8721 97.6479 40.9161C97.3288 40.9601 97.0208 41.0426 96.7237 41.1636C96.4266 41.2737 96.1571 41.4277 95.915 41.6257C95.673 41.8238 95.4914 42.0823 95.3704 42.4014H93.753C93.808 41.9723 93.9621 41.5817 94.2151 41.2296C94.4792 40.8776 94.8203 40.575 95.2384 40.3219C95.6675 40.0579 96.1571 39.8543 96.7072 39.7113C97.2683 39.5683 97.8625 39.4968 98.4896 39.4968H98.6216C99.4798 39.4968 100.212 39.5958 100.817 39.7938C101.422 39.9919 101.917 40.2944 102.302 40.7015C102.687 41.1086 102.968 41.6257 103.144 42.2529C103.32 42.88 103.413 43.6227 103.424 44.4809V48.7058H101.889V44.5964L100.189 44.5799C100.52 45.031 100.685 45.5921 100.685 46.2633ZM94.8918 46.1478C94.9028 46.6759 95.0568 47.0775 95.3539 47.3525C95.651 47.6166 96.1296 47.7486 96.7897 47.7486H97.3509C97.989 47.7486 98.4566 47.6166 98.7537 47.3525C99.0507 47.0885 99.2103 46.6869 99.2323 46.1478C99.2103 45.6086 99.0562 45.2126 98.7702 44.9595C98.4841 44.7064 98.011 44.5799 97.3509 44.5799H96.7897C96.1296 44.5799 95.651 44.7064 95.3539 44.9595C95.0568 45.2126 94.9028 45.6086 94.8918 46.1478Z" fill="#141414"/>
  <path d="M107.27 48.7058L105.735 48.7223V37.1532H107.27V44.976L112.897 39.9589H115.125L111.197 43.4246L115.72 48.7058H113.69L110.042 44.4479L107.27 46.9069V48.7058Z" fill="#141414"/>
  <path d="M122.219 40.8666C121.669 40.8666 121.163 40.9381 120.7 41.0811C120.238 41.2241 119.837 41.4387 119.496 41.7248C119.155 42.0108 118.891 42.3739 118.703 42.814C118.516 43.2431 118.417 43.7602 118.406 44.3654V48.7058H116.872V37.1532H118.406V40.9986C118.869 40.5145 119.43 40.1459 120.09 39.8928C120.75 39.6398 121.482 39.5133 122.285 39.5133C122.912 39.5133 123.484 39.5958 124.001 39.7608C124.518 39.9258 124.958 40.1734 125.321 40.5035C125.696 40.8226 125.982 41.2296 126.18 41.7248C126.378 42.2089 126.477 42.781 126.477 43.4411V48.7058H124.942V43.9693C124.942 43.5512 124.903 43.1551 124.826 42.781C124.749 42.4069 124.606 42.0768 124.397 41.7908C124.188 41.5047 123.908 41.2792 123.556 41.1141C123.215 40.9491 122.769 40.8666 122.219 40.8666Z" fill="#141414"/>
  <path d="M138.052 48.6893L136.534 48.7058V43.9528C136.534 43.6667 136.517 43.3476 136.484 42.9955C136.462 42.6435 136.363 42.3134 136.187 42.0053C136.011 41.6973 135.742 41.4387 135.379 41.2296C135.015 41.0096 134.493 40.8996 133.811 40.8996C133.261 40.8996 132.754 40.9601 132.292 41.0811C131.83 41.1911 131.429 41.3892 131.088 41.6752C130.758 41.9613 130.493 42.3574 130.295 42.8635C130.108 43.3696 130.009 44.0133 129.998 44.7945V48.6893H128.464V39.9424L129.998 39.9589L129.833 41.0316C130.295 40.5035 130.868 40.1184 131.55 39.8763C132.243 39.6233 133.019 39.4968 133.877 39.4968C134.504 39.4968 135.071 39.5793 135.577 39.7443C136.094 39.9093 136.534 40.1569 136.897 40.487C137.271 40.8061 137.557 41.2131 137.755 41.7083C137.953 42.2034 138.052 42.781 138.052 43.4411V48.6893Z" fill="#141414"/>
  <path d="M146.27 47.9797C145.83 48.8379 145.428 49.487 145.065 49.9271C144.702 50.3672 144.35 50.6753 144.009 50.8513C143.668 51.0384 143.316 51.1319 142.953 51.1319C142.59 51.1429 142.177 51.1484 141.715 51.1484H141.566V49.7456C141.974 49.7456 142.315 49.7346 142.59 49.7126C142.865 49.6906 143.107 49.6191 143.316 49.498C143.536 49.377 143.75 49.1845 143.959 48.9204C144.169 48.6563 144.411 48.2822 144.686 47.7981L144.768 47.6331H143.712L139.371 39.9754H141.104C141.787 41.1856 142.408 42.2859 142.969 43.2761C143.211 43.6942 143.448 44.1123 143.679 44.5304C143.91 44.9375 144.125 45.3171 144.323 45.6692C144.521 46.0102 144.686 46.3018 144.818 46.5439C144.95 46.7749 145.038 46.9289 145.082 47.006L148.597 39.9754H150.297L146.27 47.9797Z" fill="#141414"/>
  <path d="M152.993 48.7058L151.459 48.7223V37.1532H152.993V44.976L158.621 39.9589H160.849L156.921 43.4246L161.443 48.7058H159.413L155.766 44.4479L152.993 46.9069V48.7058Z" fill="#141414"/>
  </svg>
  