<svg
width="40"
height="37"
viewBox="0 0 40 37"
fill="none"
xmlns="http://www.w3.org/2000/svg"
>
<path
  d="M34.2095 6.74232C32.3691 4.88344 30.1802 3.40583 27.7679 2.39408C25.3557 1.38234 22.7676 0.856334 20.1518 0.846191H19.9999C14.6956 0.846191 9.60856 2.95332 5.85784 6.70403C2.10713 10.4547 0 15.5418 0 20.8461V31.6153C0 32.8394 0.486261 34.0133 1.35181 34.8789C2.21736 35.7444 3.3913 36.2307 4.61537 36.2307H7.69228C8.91635 36.2307 10.0903 35.7444 10.9558 34.8789C11.8214 34.0133 12.3076 32.8394 12.3076 31.6153V23.923C12.3076 22.699 11.8214 21.525 10.9558 20.6595C10.0903 19.7939 8.91635 19.3077 7.69228 19.3077H3.14614C3.52997 15.1031 5.47162 11.1938 8.5899 8.34736C11.7082 5.50091 15.7778 3.92289 19.9999 3.9231H20.1288C24.3333 3.94087 28.3795 5.52829 31.4745 8.37423C34.5695 11.2202 36.4899 15.1194 36.8595 19.3077H32.3076C31.0835 19.3077 29.9096 19.7939 29.044 20.6595C28.1785 21.525 27.6922 22.699 27.6922 23.923V31.6153C27.6922 32.8394 28.1785 34.0133 29.044 34.8789C29.9096 35.7444 31.0835 36.2307 32.3076 36.2307H35.3845C36.6086 36.2307 37.7825 35.7444 38.648 34.8789C39.5136 34.0133 39.9999 32.8394 39.9999 31.6153V20.8461C40.0099 18.2299 39.5036 15.6375 38.5099 13.2173C37.5163 10.7971 36.0549 8.59675 34.2095 6.74232ZM7.69228 22.3846C8.1003 22.3846 8.49162 22.5467 8.78013 22.8352C9.06865 23.1237 9.23073 23.515 9.23073 23.923V31.6153C9.23073 32.0233 9.06865 32.4146 8.78013 32.7032C8.49162 32.9917 8.1003 33.1538 7.69228 33.1538H4.61537C4.20734 33.1538 3.81603 32.9917 3.52752 32.7032C3.239 32.4146 3.07691 32.0233 3.07691 31.6153V22.3846H7.69228ZM36.9229 31.6153C36.9229 32.0233 36.7609 32.4146 36.4723 32.7032C36.1838 32.9917 35.7925 33.1538 35.3845 33.1538H32.3076C31.8995 33.1538 31.5082 32.9917 31.2197 32.7032C30.9312 32.4146 30.7691 32.0233 30.7691 31.6153V23.923C30.7691 23.515 30.9312 23.1237 31.2197 22.8352C31.5082 22.5467 31.8995 22.3846 32.3076 22.3846H36.9229V31.6153Z"
  fill="#141414"
/>
</svg>