<svg
width="34"
height="42"
viewBox="0 0 34 42"
fill="none"
xmlns="http://www.w3.org/2000/svg"
>
<path
  d="M24.7273 26.6609C24.7273 27.0636 24.5644 27.4499 24.2746 27.7347C23.9848 28.0194 23.5917 28.1794 23.1818 28.1794H10.8182C10.4083 28.1794 10.0152 28.0194 9.72538 27.7347C9.43555 27.4499 9.27273 27.0636 9.27273 26.6609C9.27273 26.2582 9.43555 25.8719 9.72538 25.5871C10.0152 25.3024 10.4083 25.1424 10.8182 25.1424H23.1818C23.5917 25.1424 23.9848 25.3024 24.2746 25.5871C24.5644 25.8719 24.7273 26.2582 24.7273 26.6609ZM23.1818 19.0683H10.8182C10.4083 19.0683 10.0152 19.2282 9.72538 19.513C9.43555 19.7978 9.27273 20.184 9.27273 20.5868C9.27273 20.9895 9.43555 21.3758 9.72538 21.6606C10.0152 21.9453 10.4083 22.1053 10.8182 22.1053H23.1818C23.5917 22.1053 23.9848 21.9453 24.2746 21.6606C24.5644 21.3758 24.7273 20.9895 24.7273 20.5868C24.7273 20.184 24.5644 19.7978 24.2746 19.513C23.9848 19.2282 23.5917 19.0683 23.1818 19.0683ZM34 6.92003V38.8091C34 39.6146 33.6744 40.3871 33.0947 40.9567C32.515 41.5262 31.7288 41.8462 30.9091 41.8462H3.09091C2.27115 41.8462 1.48496 41.5262 0.905306 40.9567C0.325648 40.3871 0 39.6146 0 38.8091V6.92003C0 6.11455 0.325648 5.34207 0.905306 4.77251C1.48496 4.20295 2.27115 3.88297 3.09091 3.88297H10.0957C10.964 2.92768 12.0279 2.16335 13.2178 1.64003C14.4076 1.11671 15.6964 0.846191 17 0.846191C18.3036 0.846191 19.5924 1.11671 20.7822 1.64003C21.972 2.16335 23.036 2.92768 23.9043 3.88297H30.9091C31.7288 3.88297 32.515 4.20295 33.0947 4.77251C33.6744 5.34207 34 6.11455 34 6.92003ZM10.8182 9.95709H23.1818C23.1818 8.34613 22.5305 6.80116 21.3712 5.66204C20.2119 4.52292 18.6395 3.88297 17 3.88297C15.3605 3.88297 13.7881 4.52292 12.6288 5.66204C11.4695 6.80116 10.8182 8.34613 10.8182 9.95709ZM30.9091 6.92003H25.7415C26.093 7.89534 26.2727 8.92242 26.2727 9.95709V11.4756C26.2727 11.8784 26.1099 12.2646 25.8201 12.5494C25.5302 12.8342 25.1372 12.9941 24.7273 12.9941H9.27273C8.86285 12.9941 8.46976 12.8342 8.17993 12.5494C7.8901 12.2646 7.72727 11.8784 7.72727 11.4756V9.95709C7.72731 8.92242 7.90697 7.89534 8.25852 6.92003H3.09091V38.8091H30.9091V6.92003Z"
  fill="#141414"
/>
</svg>