<svg
width="40"
height="38"
viewBox="0 0 40 38"
fill="none"
xmlns="http://www.w3.org/2000/svg"
>
<path
  d="M35.3846 0.230713H4.61538C3.39131 0.230713 2.21737 0.716975 1.35181 1.58253C0.486263 2.44808 0 3.62202 0 4.8461V26.3846C0 27.6086 0.486263 28.7826 1.35181 29.6481C2.21737 30.5137 3.39131 30.9999 4.61538 30.9999H35.3846C36.6087 30.9999 37.7826 30.5137 38.6482 29.6481C39.5137 28.7826 40 27.6086 40 26.3846V4.8461C40 3.62202 39.5137 2.44808 38.6482 1.58253C37.7826 0.716975 36.6087 0.230713 35.3846 0.230713ZM36.9231 26.3846C36.9231 26.7926 36.761 27.1839 36.4725 27.4724C36.184 27.7609 35.7926 27.923 35.3846 27.923H4.61538C4.20736 27.923 3.81605 27.7609 3.52753 27.4724C3.23901 27.1839 3.07692 26.7926 3.07692 26.3846V4.8461C3.07692 4.43807 3.23901 4.04676 3.52753 3.75824C3.81605 3.46972 4.20736 3.30764 4.61538 3.30764H35.3846C35.7926 3.30764 36.184 3.46972 36.4725 3.75824C36.761 4.04676 36.9231 4.43807 36.9231 4.8461V26.3846ZM27.6923 35.6153C27.6923 36.0234 27.5302 36.4147 27.2417 36.7032C26.9532 36.9917 26.5619 37.1538 26.1538 37.1538H13.8462C13.4381 37.1538 13.0468 36.9917 12.7583 36.7032C12.4698 36.4147 12.3077 36.0234 12.3077 35.6153C12.3077 35.2073 12.4698 34.816 12.7583 34.5275C13.0468 34.239 13.4381 34.0769 13.8462 34.0769H26.1538C26.5619 34.0769 26.9532 34.239 27.2417 34.5275C27.5302 34.816 27.6923 35.2073 27.6923 35.6153Z"
  fill="#141414"
/>
</svg>