<svg
width="40"
height="34"
viewBox="0 0 40 34"
fill="none"
xmlns="http://www.w3.org/2000/svg"
>
<path
  d="M36.9231 0H3.07692C2.26087 0 1.47824 0.324175 0.90121 0.90121C0.324175 1.47824 0 2.26087 0 3.07692V30.7692C0 31.5853 0.324175 32.3679 0.90121 32.9449C1.47824 33.522 2.26087 33.8462 3.07692 33.8462H36.9231C37.7391 33.8462 38.5218 33.522 39.0988 32.9449C39.6758 32.3679 40 31.5853 40 30.7692V3.07692C40 2.26087 39.6758 1.47824 39.0988 0.90121C38.5218 0.324175 37.7391 0 36.9231 0ZM36.9231 3.07692V6.15385H3.07692V3.07692H36.9231ZM36.9231 30.7692H3.07692V9.23077H36.9231V30.7692ZM29.2308 13.8462C29.2308 16.2943 28.2582 18.6422 26.5271 20.3733C24.796 22.1044 22.4482 23.0769 20 23.0769C17.5518 23.0769 15.204 22.1044 13.4729 20.3733C11.7418 18.6422 10.7692 16.2943 10.7692 13.8462C10.7692 13.4381 10.9313 13.0468 11.2198 12.7583C11.5084 12.4698 11.8997 12.3077 12.3077 12.3077C12.7157 12.3077 13.107 12.4698 13.3955 12.7583C13.6841 13.0468 13.8462 13.4381 13.8462 13.8462C13.8462 15.4783 14.4945 17.0435 15.6486 18.1976C16.8026 19.3517 18.3679 20 20 20C21.6321 20 23.1974 19.3517 24.3514 18.1976C25.5055 17.0435 26.1538 15.4783 26.1538 13.8462C26.1538 13.4381 26.3159 13.0468 26.6045 12.7583C26.893 12.4698 27.2843 12.3077 27.6923 12.3077C28.1003 12.3077 28.4916 12.4698 28.7802 12.7583C29.0687 13.0468 29.2308 13.4381 29.2308 13.8462Z"
  fill="#141414"
/>
</svg>